<mxfile host="65bd71144e">
    <diagram id="R2lEEEUBdFMjLlhIrx00" name="Page-1">
        <mxGraphModel dx="1387" dy="779" grid="1" gridSize="10" guides="1" tooltips="1" connect="1" arrows="1" fold="1" page="1" pageScale="1" pageWidth="1920" pageHeight="1200" math="0" shadow="0" extFonts="Permanent Marker^https://fonts.googleapis.com/css?family=Permanent+Marker">
            <root>
                <mxCell id="0"/>
                <mxCell id="1" parent="0"/>
                <mxCell id="UgMfafSLkVDqZi9sD24F-9" value="&lt;font style=&quot;font-size: 18px;&quot;&gt;Pokemon&lt;/font&gt;" style="rounded=0;whiteSpace=wrap;html=1;" parent="1" vertex="1">
                    <mxGeometry x="130" y="160" width="200" height="100" as="geometry"/>
                </mxCell>
                <mxCell id="UgMfafSLkVDqZi9sD24F-11" value="&lt;font style=&quot;font-size: 12px;&quot;&gt;&lt;u style=&quot;&quot;&gt;id_pokedex&lt;/u&gt;&lt;/font&gt;" style="ellipse;whiteSpace=wrap;html=1;" parent="1" vertex="1">
                    <mxGeometry x="90" y="20" width="80" height="53.33" as="geometry"/>
                </mxCell>
                <mxCell id="UgMfafSLkVDqZi9sD24F-12" value="" style="endArrow=none;html=1;rounded=0;entryX=0.5;entryY=1;entryDx=0;entryDy=0;exitX=0;exitY=0;exitDx=0;exitDy=0;" parent="1" source="UgMfafSLkVDqZi9sD24F-9" target="UgMfafSLkVDqZi9sD24F-11" edge="1">
                    <mxGeometry width="50" height="50" relative="1" as="geometry">
                        <mxPoint x="660" y="250" as="sourcePoint"/>
                        <mxPoint x="710" y="200" as="targetPoint"/>
                    </mxGeometry>
                </mxCell>
                <mxCell id="UgMfafSLkVDqZi9sD24F-13" value="&lt;font style=&quot;font-size: 12px;&quot;&gt;name&lt;/font&gt;" style="ellipse;whiteSpace=wrap;html=1;" parent="1" vertex="1">
                    <mxGeometry x="140" y="73.32999999999998" width="80" height="53.33" as="geometry"/>
                </mxCell>
                <mxCell id="UgMfafSLkVDqZi9sD24F-15" value="" style="endArrow=none;html=1;rounded=0;entryX=0.5;entryY=1;entryDx=0;entryDy=0;exitX=0.25;exitY=0;exitDx=0;exitDy=0;" parent="1" source="UgMfafSLkVDqZi9sD24F-9" target="UgMfafSLkVDqZi9sD24F-13" edge="1">
                    <mxGeometry width="50" height="50" relative="1" as="geometry">
                        <mxPoint x="660" y="270" as="sourcePoint"/>
                        <mxPoint x="710" y="220" as="targetPoint"/>
                    </mxGeometry>
                </mxCell>
                <mxCell id="UgMfafSLkVDqZi9sD24F-16" value="&lt;font style=&quot;font-size: 12px;&quot;&gt;height&lt;br&gt;&lt;/font&gt;" style="ellipse;whiteSpace=wrap;html=1;" parent="1" vertex="1">
                    <mxGeometry x="190" y="10" width="80" height="53.33" as="geometry"/>
                </mxCell>
                <mxCell id="UgMfafSLkVDqZi9sD24F-17" value="" style="endArrow=none;html=1;rounded=0;entryX=0.5;entryY=1;entryDx=0;entryDy=0;exitX=0.5;exitY=0;exitDx=0;exitDy=0;" parent="1" source="UgMfafSLkVDqZi9sD24F-9" target="UgMfafSLkVDqZi9sD24F-16" edge="1">
                    <mxGeometry width="50" height="50" relative="1" as="geometry">
                        <mxPoint x="660" y="270" as="sourcePoint"/>
                        <mxPoint x="710" y="220" as="targetPoint"/>
                    </mxGeometry>
                </mxCell>
                <mxCell id="UgMfafSLkVDqZi9sD24F-18" value="&lt;font style=&quot;font-size: 12px;&quot;&gt;weight&lt;br&gt;&lt;/font&gt;" style="ellipse;whiteSpace=wrap;html=1;" parent="1" vertex="1">
                    <mxGeometry x="240" y="73.32999999999998" width="80" height="53.33" as="geometry"/>
                </mxCell>
                <mxCell id="UgMfafSLkVDqZi9sD24F-19" value="" style="endArrow=none;html=1;rounded=0;entryX=0.5;entryY=1;entryDx=0;entryDy=0;exitX=0.75;exitY=0;exitDx=0;exitDy=0;" parent="1" source="UgMfafSLkVDqZi9sD24F-9" target="UgMfafSLkVDqZi9sD24F-18" edge="1">
                    <mxGeometry width="50" height="50" relative="1" as="geometry">
                        <mxPoint x="660" y="270" as="sourcePoint"/>
                        <mxPoint x="710" y="220" as="targetPoint"/>
                    </mxGeometry>
                </mxCell>
                <mxCell id="UgMfafSLkVDqZi9sD24F-20" value="&lt;font style=&quot;font-size: 12px;&quot;&gt;sprite&lt;br&gt;&lt;/font&gt;" style="ellipse;whiteSpace=wrap;html=1;" parent="1" vertex="1">
                    <mxGeometry x="20" y="79.99999999999999" width="80" height="53.33" as="geometry"/>
                </mxCell>
                <mxCell id="UgMfafSLkVDqZi9sD24F-21" value="" style="endArrow=none;html=1;rounded=0;entryX=0.5;entryY=1;entryDx=0;entryDy=0;exitX=0;exitY=0.25;exitDx=0;exitDy=0;" parent="1" source="UgMfafSLkVDqZi9sD24F-9" target="UgMfafSLkVDqZi9sD24F-20" edge="1">
                    <mxGeometry width="50" height="50" relative="1" as="geometry">
                        <mxPoint x="660" y="270" as="sourcePoint"/>
                        <mxPoint x="710" y="220" as="targetPoint"/>
                    </mxGeometry>
                </mxCell>
                <mxCell id="UgMfafSLkVDqZi9sD24F-22" value="&lt;font style=&quot;font-size: 12px;&quot;&gt;capture_rate&lt;br&gt;&lt;/font&gt;" style="ellipse;whiteSpace=wrap;html=1;" parent="1" vertex="1">
                    <mxGeometry x="20" y="183.34" width="80" height="53.33" as="geometry"/>
                </mxCell>
                <mxCell id="UgMfafSLkVDqZi9sD24F-23" value="" style="endArrow=none;html=1;rounded=0;entryX=1;entryY=0.5;entryDx=0;entryDy=0;exitX=0;exitY=0.5;exitDx=0;exitDy=0;" parent="1" source="UgMfafSLkVDqZi9sD24F-9" target="UgMfafSLkVDqZi9sD24F-22" edge="1">
                    <mxGeometry width="50" height="50" relative="1" as="geometry">
                        <mxPoint x="660" y="270" as="sourcePoint"/>
                        <mxPoint x="50" y="210" as="targetPoint"/>
                    </mxGeometry>
                </mxCell>
                <mxCell id="UgMfafSLkVDqZi9sD24F-24" value="Evolves" style="rhombus;whiteSpace=wrap;html=1;" parent="1" vertex="1">
                    <mxGeometry x="225" y="330" width="110" height="70" as="geometry"/>
                </mxCell>
                <mxCell id="UgMfafSLkVDqZi9sD24F-36" value="&lt;font style=&quot;font-size: 12px;&quot;&gt;rarity&lt;br&gt;&lt;/font&gt;" style="ellipse;whiteSpace=wrap;html=1;" parent="1" vertex="1">
                    <mxGeometry x="20" y="260.01" width="80" height="53.33" as="geometry"/>
                </mxCell>
                <mxCell id="15" value="&lt;font style=&quot;font-size: 18px;&quot;&gt;Generations&lt;/font&gt;" style="rounded=0;whiteSpace=wrap;html=1;" parent="1" vertex="1">
                    <mxGeometry x="670" y="160.01" width="200" height="100" as="geometry"/>
                </mxCell>
                <mxCell id="18" value="&lt;font style=&quot;font-size: 12px;&quot;&gt;&lt;u&gt;id_generation&lt;/u&gt;&lt;br&gt;&lt;/font&gt;" style="ellipse;whiteSpace=wrap;html=1;" parent="1" vertex="1">
                    <mxGeometry x="620" y="16.66" width="90" height="60" as="geometry"/>
                </mxCell>
                <mxCell id="19" value="" style="endArrow=none;html=1;entryX=0.5;entryY=1;entryDx=0;entryDy=0;exitX=0;exitY=0;exitDx=0;exitDy=0;" parent="1" source="15" target="18" edge="1">
                    <mxGeometry width="50" height="50" relative="1" as="geometry">
                        <mxPoint x="1060" y="140" as="sourcePoint"/>
                        <mxPoint x="930" y="360" as="targetPoint"/>
                    </mxGeometry>
                </mxCell>
                <mxCell id="20" value="&lt;font style=&quot;font-size: 12px;&quot;&gt;gen_number&lt;br&gt;&lt;/font&gt;" style="ellipse;whiteSpace=wrap;html=1;" parent="1" vertex="1">
                    <mxGeometry x="680" y="79.99999999999999" width="80" height="53.33" as="geometry"/>
                </mxCell>
                <mxCell id="21" value="" style="endArrow=none;html=1;entryX=0.5;entryY=1;entryDx=0;entryDy=0;exitX=0.25;exitY=0;exitDx=0;exitDy=0;" parent="1" source="15" target="20" edge="1">
                    <mxGeometry width="50" height="50" relative="1" as="geometry">
                        <mxPoint x="700" y="290" as="sourcePoint"/>
                        <mxPoint x="750" y="240" as="targetPoint"/>
                    </mxGeometry>
                </mxCell>
                <mxCell id="22" value="" style="endArrow=none;html=1;entryX=0;entryY=0.75;entryDx=0;entryDy=0;exitX=1;exitY=0.5;exitDx=0;exitDy=0;" parent="1" source="UgMfafSLkVDqZi9sD24F-36" target="UgMfafSLkVDqZi9sD24F-9" edge="1">
                    <mxGeometry width="50" height="50" relative="1" as="geometry">
                        <mxPoint x="580" y="300" as="sourcePoint"/>
                        <mxPoint x="630" y="250" as="targetPoint"/>
                    </mxGeometry>
                </mxCell>
                <mxCell id="26" value="Belongs" style="rhombus;whiteSpace=wrap;html=1;" parent="1" vertex="1">
                    <mxGeometry x="460" y="175.00000000000003" width="110" height="70" as="geometry"/>
                </mxCell>
                <mxCell id="36" value="&lt;font style=&quot;font-size: 12px;&quot;&gt;region&lt;br&gt;&lt;/font&gt;" style="ellipse;whiteSpace=wrap;html=1;" parent="1" vertex="1">
                    <mxGeometry x="730" y="26.669999999999987" width="80" height="53.33" as="geometry"/>
                </mxCell>
                <mxCell id="37" value="" style="endArrow=none;html=1;entryX=0.5;entryY=1;entryDx=0;entryDy=0;exitX=0.5;exitY=0;exitDx=0;exitDy=0;" parent="1" source="15" target="36" edge="1">
                    <mxGeometry width="50" height="50" relative="1" as="geometry">
                        <mxPoint x="810" y="340" as="sourcePoint"/>
                        <mxPoint x="860" y="290" as="targetPoint"/>
                    </mxGeometry>
                </mxCell>
                <mxCell id="45" value="&lt;span style=&quot;font-size: 18px;&quot;&gt;BaseStats&lt;/span&gt;" style="rounded=0;whiteSpace=wrap;html=1;" parent="1" vertex="1">
                    <mxGeometry x="390" y="550" width="200" height="100" as="geometry"/>
                </mxCell>
                <mxCell id="46" value="Have" style="rhombus;whiteSpace=wrap;html=1;" parent="1" vertex="1">
                    <mxGeometry x="230" y="565" width="110" height="70" as="geometry"/>
                </mxCell>
                <mxCell id="51" value="&lt;font style=&quot;font-size: 12px;&quot;&gt;&lt;u&gt;id_stats&lt;/u&gt;&lt;br&gt;&lt;/font&gt;" style="ellipse;whiteSpace=wrap;html=1;" parent="1" vertex="1">
                    <mxGeometry x="350" y="410" width="80" height="53.33" as="geometry"/>
                </mxCell>
                <mxCell id="52" value="" style="endArrow=none;html=1;fontSize=11;entryX=0.5;entryY=1;entryDx=0;entryDy=0;exitX=0;exitY=0;exitDx=0;exitDy=0;" parent="1" source="45" target="51" edge="1">
                    <mxGeometry width="50" height="50" relative="1" as="geometry">
                        <mxPoint x="620" y="460" as="sourcePoint"/>
                        <mxPoint x="670" y="410" as="targetPoint"/>
                    </mxGeometry>
                </mxCell>
                <mxCell id="53" value="&lt;font style=&quot;font-size: 12px;&quot;&gt;hp&lt;br&gt;&lt;/font&gt;" style="ellipse;whiteSpace=wrap;html=1;" parent="1" vertex="1">
                    <mxGeometry x="400" y="469.99999999999994" width="80" height="53.33" as="geometry"/>
                </mxCell>
                <mxCell id="54" value="" style="endArrow=none;html=1;fontSize=11;entryX=0.5;entryY=1;entryDx=0;entryDy=0;exitX=0.25;exitY=0;exitDx=0;exitDy=0;" parent="1" source="45" target="53" edge="1">
                    <mxGeometry width="50" height="50" relative="1" as="geometry">
                        <mxPoint x="620" y="460" as="sourcePoint"/>
                        <mxPoint x="670" y="410" as="targetPoint"/>
                    </mxGeometry>
                </mxCell>
                <mxCell id="55" value="&lt;font style=&quot;font-size: 12px;&quot;&gt;attack&lt;br&gt;&lt;/font&gt;" style="ellipse;whiteSpace=wrap;html=1;" parent="1" vertex="1">
                    <mxGeometry x="450" y="409.99999999999994" width="80" height="53.33" as="geometry"/>
                </mxCell>
                <mxCell id="56" value="" style="endArrow=none;html=1;fontSize=11;entryX=0.5;entryY=1;entryDx=0;entryDy=0;exitX=0.5;exitY=0;exitDx=0;exitDy=0;" parent="1" source="45" target="55" edge="1">
                    <mxGeometry width="50" height="50" relative="1" as="geometry">
                        <mxPoint x="500" y="490.00000000000006" as="sourcePoint"/>
                        <mxPoint x="730" y="350" as="targetPoint"/>
                    </mxGeometry>
                </mxCell>
                <mxCell id="57" value="&lt;font style=&quot;font-size: 12px;&quot;&gt;defense&lt;br&gt;&lt;/font&gt;" style="ellipse;whiteSpace=wrap;html=1;" parent="1" vertex="1">
                    <mxGeometry x="500" y="469.99999999999994" width="80" height="53.33" as="geometry"/>
                </mxCell>
                <mxCell id="58" value="" style="endArrow=none;html=1;fontSize=11;entryX=0.5;entryY=1;entryDx=0;entryDy=0;exitX=0.75;exitY=0;exitDx=0;exitDy=0;" parent="1" source="45" target="57" edge="1">
                    <mxGeometry width="50" height="50" relative="1" as="geometry">
                        <mxPoint x="600" y="530" as="sourcePoint"/>
                        <mxPoint x="770" y="410" as="targetPoint"/>
                    </mxGeometry>
                </mxCell>
                <mxCell id="59" value="&lt;font style=&quot;font-size: 12px;&quot;&gt;sp_attack&lt;br&gt;&lt;/font&gt;" style="ellipse;whiteSpace=wrap;html=1;" parent="1" vertex="1">
                    <mxGeometry x="550" y="409.99999999999994" width="80" height="53.33" as="geometry"/>
                </mxCell>
                <mxCell id="60" value="" style="endArrow=none;html=1;fontSize=11;entryX=0.5;entryY=1;entryDx=0;entryDy=0;exitX=1;exitY=0;exitDx=0;exitDy=0;" parent="1" source="45" target="59" edge="1">
                    <mxGeometry width="50" height="50" relative="1" as="geometry">
                        <mxPoint x="620" y="500" as="sourcePoint"/>
                        <mxPoint x="850" y="360" as="targetPoint"/>
                    </mxGeometry>
                </mxCell>
                <mxCell id="61" value="&lt;font style=&quot;font-size: 12px;&quot;&gt;sp_defense&lt;br&gt;&lt;/font&gt;" style="ellipse;whiteSpace=wrap;html=1;" parent="1" vertex="1">
                    <mxGeometry x="350" y="676.67" width="80" height="53.33" as="geometry"/>
                </mxCell>
                <mxCell id="62" value="" style="endArrow=none;html=1;fontSize=11;entryX=0.5;entryY=0;entryDx=0;entryDy=0;exitX=0;exitY=1;exitDx=0;exitDy=0;" parent="1" source="45" target="61" edge="1">
                    <mxGeometry width="50" height="50" relative="1" as="geometry">
                        <mxPoint x="420" y="800" as="sourcePoint"/>
                        <mxPoint x="650" y="660" as="targetPoint"/>
                    </mxGeometry>
                </mxCell>
                <mxCell id="65" value="&lt;font style=&quot;font-size: 12px;&quot;&gt;speed&lt;br&gt;&lt;/font&gt;" style="ellipse;whiteSpace=wrap;html=1;" parent="1" vertex="1">
                    <mxGeometry x="400" y="730" width="80" height="53.33" as="geometry"/>
                </mxCell>
                <mxCell id="66" value="" style="endArrow=none;html=1;fontSize=11;entryX=0.5;entryY=0;entryDx=0;entryDy=0;exitX=0.25;exitY=1;exitDx=0;exitDy=0;" parent="1" source="45" target="65" edge="1">
                    <mxGeometry width="50" height="50" relative="1" as="geometry">
                        <mxPoint x="470" y="710" as="sourcePoint"/>
                        <mxPoint x="730" y="720" as="targetPoint"/>
                    </mxGeometry>
                </mxCell>
                <mxCell id="67" value="&lt;span style=&quot;font-size: 18px;&quot;&gt;Type&lt;/span&gt;" style="rounded=0;whiteSpace=wrap;html=1;" parent="1" vertex="1">
                    <mxGeometry x="340" y="1063.33" width="200" height="100" as="geometry"/>
                </mxCell>
                <mxCell id="70" value="Is of" style="rhombus;whiteSpace=wrap;html=1;" parent="1" vertex="1">
                    <mxGeometry x="130" y="1078.33" width="110" height="70" as="geometry"/>
                </mxCell>
                <mxCell id="74" value="&lt;font style=&quot;font-size: 12px;&quot;&gt;&lt;u&gt;id_type&lt;/u&gt;&lt;br&gt;&lt;/font&gt;" style="ellipse;whiteSpace=wrap;html=1;" parent="1" vertex="1">
                    <mxGeometry x="300" y="930" width="80" height="53.33" as="geometry"/>
                </mxCell>
                <mxCell id="75" value="" style="endArrow=none;html=1;fontSize=11;entryX=0.5;entryY=1;entryDx=0;entryDy=0;exitX=0;exitY=0;exitDx=0;exitDy=0;" parent="1" source="67" target="74" edge="1">
                    <mxGeometry width="50" height="50" relative="1" as="geometry">
                        <mxPoint x="340" y="1033.33" as="sourcePoint"/>
                        <mxPoint x="639.13" y="923.33" as="targetPoint"/>
                    </mxGeometry>
                </mxCell>
                <mxCell id="76" value="" style="endArrow=none;html=1;fontSize=11;entryX=0.489;entryY=1;entryDx=0;entryDy=0;entryPerimeter=0;exitX=0.25;exitY=0;exitDx=0;exitDy=0;" parent="1" source="67" target="77" edge="1">
                    <mxGeometry width="50" height="50" relative="1" as="geometry">
                        <mxPoint x="480" y="1053.33" as="sourcePoint"/>
                        <mxPoint x="409.13" y="1036.6599999999999" as="targetPoint"/>
                    </mxGeometry>
                </mxCell>
                <mxCell id="77" value="&lt;font style=&quot;font-size: 12px;&quot;&gt;name&lt;br&gt;&lt;/font&gt;" style="ellipse;whiteSpace=wrap;html=1;" parent="1" vertex="1">
                    <mxGeometry x="350" y="983.33" width="80" height="53.33" as="geometry"/>
                </mxCell>
                <mxCell id="78" value="Have" style="rhombus;whiteSpace=wrap;html=1;" parent="1" vertex="1">
                    <mxGeometry x="1100.09" y="151.67000000000002" width="110" height="70" as="geometry"/>
                </mxCell>
                <mxCell id="79" value="&lt;span style=&quot;font-size: 18px;&quot;&gt;Ability&lt;/span&gt;" style="rounded=0;whiteSpace=wrap;html=1;" parent="1" vertex="1">
                    <mxGeometry x="1360" y="136.67000000000002" width="200" height="100" as="geometry"/>
                </mxCell>
                <mxCell id="88" value="&lt;font style=&quot;font-size: 12px;&quot;&gt;&lt;u&gt;id_ability&lt;/u&gt;&lt;br&gt;&lt;/font&gt;" style="ellipse;whiteSpace=wrap;html=1;" parent="1" vertex="1">
                    <mxGeometry x="1320" y="16.65999999999997" width="80" height="53.33" as="geometry"/>
                </mxCell>
                <mxCell id="89" value="" style="endArrow=none;html=1;fontSize=11;entryX=0.5;entryY=1;entryDx=0;entryDy=0;exitX=0;exitY=0;exitDx=0;exitDy=0;" parent="1" source="79" target="88" edge="1">
                    <mxGeometry width="50" height="50" relative="1" as="geometry">
                        <mxPoint x="1450.09" y="131.67000000000002" as="sourcePoint"/>
                        <mxPoint x="1730.09" y="-8.329999999999984" as="targetPoint"/>
                    </mxGeometry>
                </mxCell>
                <mxCell id="90" value="&lt;font style=&quot;font-size: 12px;&quot;&gt;name&lt;br&gt;&lt;/font&gt;" style="ellipse;whiteSpace=wrap;html=1;" parent="1" vertex="1">
                    <mxGeometry x="1370.24" y="73.33000000000001" width="80" height="53.33" as="geometry"/>
                </mxCell>
                <mxCell id="91" value="" style="endArrow=none;html=1;fontSize=11;entryX=0.5;entryY=1;entryDx=0;entryDy=0;exitX=0.25;exitY=0;exitDx=0;exitDy=0;" parent="1" source="79" target="90" edge="1">
                    <mxGeometry width="50" height="50" relative="1" as="geometry">
                        <mxPoint x="1500.09" y="131.67000000000002" as="sourcePoint"/>
                        <mxPoint x="1730.09" y="-8.329999999999984" as="targetPoint"/>
                    </mxGeometry>
                </mxCell>
                <mxCell id="92" value="&lt;font style=&quot;font-size: 18px;&quot;&gt;Move&lt;/font&gt;" style="rounded=0;whiteSpace=wrap;html=1;" parent="1" vertex="1">
                    <mxGeometry x="650.93" y="850" width="200" height="100" as="geometry"/>
                </mxCell>
                <mxCell id="93" value="Learn" style="rhombus;whiteSpace=wrap;html=1;" parent="1" vertex="1">
                    <mxGeometry x="409.99999999999994" y="865" width="110" height="70" as="geometry"/>
                </mxCell>
                <mxCell id="98" value="&lt;font style=&quot;font-size: 12px;&quot;&gt;&lt;u&gt;id_move&lt;/u&gt;&lt;br&gt;&lt;/font&gt;" style="ellipse;whiteSpace=wrap;html=1;" parent="1" vertex="1">
                    <mxGeometry x="610.93" y="720" width="80" height="53.33" as="geometry"/>
                </mxCell>
                <mxCell id="99" value="" style="endArrow=none;html=1;entryX=0.5;entryY=1;entryDx=0;entryDy=0;exitX=0;exitY=0;exitDx=0;exitDy=0;" parent="1" source="92" target="98" edge="1">
                    <mxGeometry width="50" height="50" relative="1" as="geometry">
                        <mxPoint x="650.93" y="840" as="sourcePoint"/>
                        <mxPoint x="660.93" y="1050" as="targetPoint"/>
                    </mxGeometry>
                </mxCell>
                <mxCell id="100" value="&lt;font style=&quot;font-size: 12px;&quot;&gt;name&lt;br&gt;&lt;/font&gt;" style="ellipse;whiteSpace=wrap;html=1;" parent="1" vertex="1">
                    <mxGeometry x="660.93" y="780" width="80" height="53.33" as="geometry"/>
                </mxCell>
                <mxCell id="101" value="" style="endArrow=none;html=1;entryX=0.5;entryY=1;entryDx=0;entryDy=0;exitX=0.25;exitY=0;exitDx=0;exitDy=0;" parent="1" source="92" target="100" edge="1">
                    <mxGeometry width="50" height="50" relative="1" as="geometry">
                        <mxPoint x="700.93" y="840.0100000000002" as="sourcePoint"/>
                        <mxPoint x="660.93" y="1050" as="targetPoint"/>
                    </mxGeometry>
                </mxCell>
                <mxCell id="102" value="&lt;font style=&quot;font-size: 12px;&quot;&gt;accuracy&lt;br&gt;&lt;/font&gt;" style="ellipse;whiteSpace=wrap;html=1;" parent="1" vertex="1">
                    <mxGeometry x="710.93" y="720" width="80" height="53.33" as="geometry"/>
                </mxCell>
                <mxCell id="103" value="" style="endArrow=none;html=1;entryX=0.5;entryY=1;entryDx=0;entryDy=0;exitX=0.5;exitY=0;exitDx=0;exitDy=0;" parent="1" source="92" target="102" edge="1">
                    <mxGeometry width="50" height="50" relative="1" as="geometry">
                        <mxPoint x="780.93" y="800.0100000000002" as="sourcePoint"/>
                        <mxPoint x="740.93" y="1010" as="targetPoint"/>
                    </mxGeometry>
                </mxCell>
                <mxCell id="104" value="&lt;font style=&quot;font-size: 12px;&quot;&gt;class&lt;br&gt;&lt;/font&gt;" style="ellipse;whiteSpace=wrap;html=1;" parent="1" vertex="1">
                    <mxGeometry x="760.93" y="780" width="80" height="53.33" as="geometry"/>
                </mxCell>
                <mxCell id="105" value="" style="endArrow=none;html=1;entryX=0.5;entryY=1;entryDx=0;entryDy=0;exitX=0.75;exitY=0;exitDx=0;exitDy=0;" parent="1" source="92" target="104" edge="1">
                    <mxGeometry width="50" height="50" relative="1" as="geometry">
                        <mxPoint x="840.93" y="820.0100000000002" as="sourcePoint"/>
                        <mxPoint x="800.93" y="1030" as="targetPoint"/>
                    </mxGeometry>
                </mxCell>
                <mxCell id="106" value="&lt;font style=&quot;font-size: 12px;&quot;&gt;power&lt;br&gt;&lt;/font&gt;" style="ellipse;whiteSpace=wrap;html=1;" parent="1" vertex="1">
                    <mxGeometry x="810.93" y="720" width="80" height="53.33" as="geometry"/>
                </mxCell>
                <mxCell id="107" value="" style="endArrow=none;html=1;entryX=0.5;entryY=1;entryDx=0;entryDy=0;exitX=1;exitY=0;exitDx=0;exitDy=0;" parent="1" source="92" target="106" edge="1">
                    <mxGeometry width="50" height="50" relative="1" as="geometry">
                        <mxPoint x="910.93" y="850.0000000000002" as="sourcePoint"/>
                        <mxPoint x="870.93" y="1059.99" as="targetPoint"/>
                    </mxGeometry>
                </mxCell>
                <mxCell id="108" value="&lt;font style=&quot;font-size: 12px;&quot;&gt;pp&lt;br&gt;&lt;/font&gt;" style="ellipse;whiteSpace=wrap;html=1;" parent="1" vertex="1">
                    <mxGeometry x="890" y="850" width="80" height="53.33" as="geometry"/>
                </mxCell>
                <mxCell id="110" value="" style="endArrow=none;html=1;entryX=1;entryY=0.25;entryDx=0;entryDy=0;exitX=0;exitY=0.5;exitDx=0;exitDy=0;" parent="1" source="108" target="92" edge="1">
                    <mxGeometry width="50" height="50" relative="1" as="geometry">
                        <mxPoint x="660.93" y="860" as="sourcePoint"/>
                        <mxPoint x="660.93" y="783.3300000000002" as="targetPoint"/>
                    </mxGeometry>
                </mxCell>
                <mxCell id="115" value="Relation" style="rhombus;whiteSpace=wrap;html=1;" parent="1" vertex="1">
                    <mxGeometry x="630" y="1078.33" width="110" height="70" as="geometry"/>
                </mxCell>
                <mxCell id="122" value="Info" style="rhombus;whiteSpace=wrap;html=1;" parent="1" vertex="1">
                    <mxGeometry x="825.18" y="420" width="110" height="70" as="geometry"/>
                </mxCell>
                <mxCell id="124" value="&lt;font style=&quot;font-size: 18px;&quot;&gt;PokemonGO&lt;/font&gt;" style="rounded=0;whiteSpace=wrap;html=1;" parent="1" vertex="1">
                    <mxGeometry x="1085.04" y="405.00000000000006" width="200" height="100" as="geometry"/>
                </mxCell>
                <mxCell id="128" value="&lt;font style=&quot;font-size: 12px;&quot;&gt;&lt;u style=&quot;&quot;&gt;id_pokemon_go&lt;/u&gt;&lt;/font&gt;" style="ellipse;whiteSpace=wrap;html=1;" parent="1" vertex="1">
                    <mxGeometry x="1030" y="326.64" width="95.04" height="63.36" as="geometry"/>
                </mxCell>
                <mxCell id="129" value="" style="endArrow=none;html=1;rounded=0;entryX=0.5;entryY=1;entryDx=0;entryDy=0;exitX=0;exitY=0;exitDx=0;exitDy=0;" parent="1" source="124" target="128" edge="1">
                    <mxGeometry width="50" height="50" relative="1" as="geometry">
                        <mxPoint x="1085.04" y="373.3400000000001" as="sourcePoint"/>
                        <mxPoint x="1665.04" y="413.3400000000001" as="targetPoint"/>
                    </mxGeometry>
                </mxCell>
                <mxCell id="130" value="&lt;font style=&quot;font-size: 12px;&quot;&gt;raid_exclusive&lt;/font&gt;" style="ellipse;whiteSpace=wrap;html=1;" parent="1" vertex="1">
                    <mxGeometry x="1085.04" y="260.01000000000005" width="90.01" height="60" as="geometry"/>
                </mxCell>
                <mxCell id="131" value="" style="endArrow=none;html=1;rounded=0;entryX=0.5;entryY=1;entryDx=0;entryDy=0;exitX=0.25;exitY=0;exitDx=0;exitDy=0;" parent="1" source="124" target="130" edge="1">
                    <mxGeometry width="50" height="50" relative="1" as="geometry">
                        <mxPoint x="1135.04" y="373.3400000000001" as="sourcePoint"/>
                        <mxPoint x="1665.04" y="433.3400000000001" as="targetPoint"/>
                    </mxGeometry>
                </mxCell>
                <mxCell id="133" value="&lt;font style=&quot;font-size: 12px;&quot;&gt;max_cp&lt;br&gt;&lt;/font&gt;" style="ellipse;whiteSpace=wrap;html=1;" parent="1" vertex="1">
                    <mxGeometry x="1145.04" y="330.00000000000006" width="80" height="53.33" as="geometry"/>
                </mxCell>
                <mxCell id="134" value="" style="endArrow=none;html=1;entryX=0.5;entryY=1;entryDx=0;entryDy=0;exitX=0.5;exitY=0;exitDx=0;exitDy=0;" parent="1" source="124" target="133" edge="1">
                    <mxGeometry width="50" height="50" relative="1" as="geometry">
                        <mxPoint x="1125.04" y="515.8299999999999" as="sourcePoint"/>
                        <mxPoint x="1275.04" y="597.5" as="targetPoint"/>
                    </mxGeometry>
                </mxCell>
                <mxCell id="135" value="&lt;font style=&quot;font-size: 12px;&quot;&gt;candy_to_evolve&lt;br&gt;&lt;/font&gt;" style="ellipse;whiteSpace=wrap;html=1;" parent="1" vertex="1">
                    <mxGeometry x="1245.04" y="320.00000000000006" width="105.01" height="70" as="geometry"/>
                </mxCell>
                <mxCell id="136" value="" style="endArrow=none;html=1;entryX=0.5;entryY=1;entryDx=0;entryDy=0;exitX=1;exitY=0;exitDx=0;exitDy=0;" parent="1" source="124" target="135" edge="1">
                    <mxGeometry width="50" height="50" relative="1" as="geometry">
                        <mxPoint x="1465.04" y="360.00000000000006" as="sourcePoint"/>
                        <mxPoint x="1625.04" y="463.33" as="targetPoint"/>
                    </mxGeometry>
                </mxCell>
                <mxCell id="137" value="&lt;font style=&quot;font-size: 12px;&quot;&gt;buddy_distance&lt;br&gt;&lt;/font&gt;" style="ellipse;whiteSpace=wrap;html=1;" parent="1" vertex="1">
                    <mxGeometry x="1195.04" y="250.00000000000003" width="100.03" height="66.68" as="geometry"/>
                </mxCell>
                <mxCell id="139" value="" style="endArrow=none;html=1;exitX=0.75;exitY=0;exitDx=0;exitDy=0;entryX=0.5;entryY=1;entryDx=0;entryDy=0;" parent="1" source="124" target="137" edge="1">
                    <mxGeometry width="50" height="50" relative="1" as="geometry">
                        <mxPoint x="1065.04" y="400.00000000000006" as="sourcePoint"/>
                        <mxPoint x="1115.04" y="350.00000000000006" as="targetPoint"/>
                    </mxGeometry>
                </mxCell>
                <mxCell id="140" value="Exist" style="rhombus;whiteSpace=wrap;html=1;" parent="1" vertex="1">
                    <mxGeometry x="1370.24" y="420" width="110" height="70" as="geometry"/>
                </mxCell>
                <mxCell id="142" value="&lt;font style=&quot;font-size: 18px;&quot;&gt;Shiny&lt;/font&gt;" style="rounded=0;whiteSpace=wrap;html=1;" parent="1" vertex="1">
                    <mxGeometry x="1580.24" y="405" width="200" height="100" as="geometry"/>
                </mxCell>
                <mxCell id="147" value="" style="shape=link;html=1;rounded=0;entryX=0;entryY=0.5;entryDx=0;entryDy=0;exitX=1;exitY=0.5;exitDx=0;exitDy=0;" parent="1" source="140" target="142" edge="1">
                    <mxGeometry relative="1" as="geometry">
                        <mxPoint x="1290.24" y="580" as="sourcePoint"/>
                        <mxPoint x="1450.24" y="580" as="targetPoint"/>
                    </mxGeometry>
                </mxCell>
                <mxCell id="148" value="1" style="resizable=0;html=1;align=right;verticalAlign=bottom;" parent="147" connectable="0" vertex="1">
                    <mxGeometry x="1" relative="1" as="geometry">
                        <mxPoint x="-80" as="offset"/>
                    </mxGeometry>
                </mxCell>
                <mxCell id="149" value="&lt;font style=&quot;font-size: 12px;&quot;&gt;&lt;u style=&quot;&quot;&gt;id_shiny&lt;/u&gt;&lt;/font&gt;" style="ellipse;whiteSpace=wrap;html=1;" parent="1" vertex="1">
                    <mxGeometry x="1540.24" y="336.67" width="80" height="53.33" as="geometry"/>
                </mxCell>
                <mxCell id="150" value="" style="endArrow=none;html=1;rounded=0;entryX=0.5;entryY=1;entryDx=0;entryDy=0;exitX=0;exitY=0;exitDx=0;exitDy=0;" parent="1" source="142" target="149" edge="1">
                    <mxGeometry width="50" height="50" relative="1" as="geometry">
                        <mxPoint x="1590.24" y="388.3299999999999" as="sourcePoint"/>
                        <mxPoint x="2170.24" y="396.6700000000001" as="targetPoint"/>
                    </mxGeometry>
                </mxCell>
                <mxCell id="151" value="&lt;font style=&quot;font-size: 12px;&quot;&gt;egg&lt;br&gt;&lt;/font&gt;" style="ellipse;whiteSpace=wrap;html=1;" parent="1" vertex="1">
                    <mxGeometry x="1590.24" y="266.68" width="80" height="53.33" as="geometry"/>
                </mxCell>
                <mxCell id="152" value="" style="endArrow=none;html=1;entryX=0.5;entryY=1;entryDx=0;entryDy=0;exitX=0.25;exitY=0;exitDx=0;exitDy=0;" parent="1" source="142" target="151" edge="1">
                    <mxGeometry width="50" height="50" relative="1" as="geometry">
                        <mxPoint x="1640.24" y="355" as="sourcePoint"/>
                        <mxPoint x="1730.24" y="547.5" as="targetPoint"/>
                    </mxGeometry>
                </mxCell>
                <mxCell id="153" value="&lt;font style=&quot;font-size: 12px;&quot;&gt;raid&lt;br&gt;&lt;/font&gt;" style="ellipse;whiteSpace=wrap;html=1;" parent="1" vertex="1">
                    <mxGeometry x="1640.24" y="330" width="80" height="53.33" as="geometry"/>
                </mxCell>
                <mxCell id="154" value="" style="endArrow=none;html=1;entryX=0.5;entryY=1;entryDx=0;entryDy=0;exitX=0.5;exitY=0;exitDx=0;exitDy=0;" parent="1" source="142" target="153" edge="1">
                    <mxGeometry width="50" height="50" relative="1" as="geometry">
                        <mxPoint x="1710.24" y="390" as="sourcePoint"/>
                        <mxPoint x="1800.24" y="582.5" as="targetPoint"/>
                    </mxGeometry>
                </mxCell>
                <mxCell id="155" value="&lt;font style=&quot;font-size: 12px;&quot;&gt;wild&lt;br&gt;&lt;/font&gt;" style="ellipse;whiteSpace=wrap;html=1;" parent="1" vertex="1">
                    <mxGeometry x="1690.24" y="263.35" width="80" height="53.33" as="geometry"/>
                </mxCell>
                <mxCell id="156" value="" style="endArrow=none;html=1;entryX=0.5;entryY=1;entryDx=0;entryDy=0;exitX=0.75;exitY=0;exitDx=0;exitDy=0;" parent="1" source="142" target="155" edge="1">
                    <mxGeometry width="50" height="50" relative="1" as="geometry">
                        <mxPoint x="1760.24" y="341.68" as="sourcePoint"/>
                        <mxPoint x="1850.24" y="534.1800000000001" as="targetPoint"/>
                    </mxGeometry>
                </mxCell>
                <mxCell id="157" value="" style="shape=link;html=1;rounded=0;entryX=0;entryY=0.5;entryDx=0;entryDy=0;exitX=1;exitY=0.5;exitDx=0;exitDy=0;" parent="1" source="122" target="124" edge="1">
                    <mxGeometry relative="1" as="geometry">
                        <mxPoint x="955.04" y="599.5" as="sourcePoint"/>
                        <mxPoint x="1055.04" y="599.5" as="targetPoint"/>
                    </mxGeometry>
                </mxCell>
                <mxCell id="158" value="1" style="resizable=0;html=1;align=right;verticalAlign=bottom;" parent="157" connectable="0" vertex="1">
                    <mxGeometry x="1" relative="1" as="geometry">
                        <mxPoint x="-150" as="offset"/>
                    </mxGeometry>
                </mxCell>
                <mxCell id="159" value="" style="endArrow=none;html=1;rounded=0;exitX=0;exitY=1;exitDx=0;exitDy=0;entryX=0;entryY=0.5;entryDx=0;entryDy=0;" parent="1" source="UgMfafSLkVDqZi9sD24F-9" target="70" edge="1">
                    <mxGeometry relative="1" as="geometry">
                        <mxPoint x="90" y="650" as="sourcePoint"/>
                        <mxPoint x="550" y="790" as="targetPoint"/>
                        <Array as="points">
                            <mxPoint x="40" y="590"/>
                            <mxPoint x="40" y="1113"/>
                        </Array>
                    </mxGeometry>
                </mxCell>
                <mxCell id="160" value="N" style="resizable=0;html=1;align=right;verticalAlign=bottom;" parent="159" connectable="0" vertex="1">
                    <mxGeometry x="1" relative="1" as="geometry">
                        <mxPoint x="-10" as="offset"/>
                    </mxGeometry>
                </mxCell>
                <mxCell id="163" value="" style="endArrow=none;html=1;rounded=0;exitX=1;exitY=0.5;exitDx=0;exitDy=0;entryX=0;entryY=0.5;entryDx=0;entryDy=0;" parent="1" source="70" target="67" edge="1">
                    <mxGeometry relative="1" as="geometry">
                        <mxPoint x="250" y="950" as="sourcePoint"/>
                        <mxPoint x="410" y="950" as="targetPoint"/>
                    </mxGeometry>
                </mxCell>
                <mxCell id="164" value="N" style="resizable=0;html=1;align=right;verticalAlign=bottom;" parent="163" connectable="0" vertex="1">
                    <mxGeometry x="1" relative="1" as="geometry">
                        <mxPoint x="-80" as="offset"/>
                    </mxGeometry>
                </mxCell>
                <mxCell id="166" value="" style="endArrow=none;html=1;rounded=0;exitX=1;exitY=0.5;exitDx=0;exitDy=0;entryX=0.5;entryY=0;entryDx=0;entryDy=0;" parent="1" source="67" target="115" edge="1">
                    <mxGeometry relative="1" as="geometry">
                        <mxPoint x="590" y="1090" as="sourcePoint"/>
                        <mxPoint x="630" y="1010" as="targetPoint"/>
                    </mxGeometry>
                </mxCell>
                <mxCell id="167" value="N" style="resizable=0;html=1;align=right;verticalAlign=bottom;" parent="166" connectable="0" vertex="1">
                    <mxGeometry x="1" relative="1" as="geometry"/>
                </mxCell>
                <mxCell id="169" value="Stronger" style="edgeLabel;html=1;align=center;verticalAlign=middle;resizable=0;points=[];" parent="166" vertex="1" connectable="0">
                    <mxGeometry x="0.2257" relative="1" as="geometry">
                        <mxPoint x="-9" as="offset"/>
                    </mxGeometry>
                </mxCell>
                <mxCell id="170" value="" style="endArrow=none;html=1;rounded=0;exitX=1;exitY=0.5;exitDx=0;exitDy=0;entryX=0.5;entryY=1;entryDx=0;entryDy=0;" parent="1" source="67" target="115" edge="1">
                    <mxGeometry relative="1" as="geometry">
                        <mxPoint x="270" y="970" as="sourcePoint"/>
                        <mxPoint x="430" y="970" as="targetPoint"/>
                    </mxGeometry>
                </mxCell>
                <mxCell id="171" value="N" style="resizable=0;html=1;align=right;verticalAlign=bottom;" parent="170" connectable="0" vertex="1">
                    <mxGeometry x="1" relative="1" as="geometry">
                        <mxPoint y="15" as="offset"/>
                    </mxGeometry>
                </mxCell>
                <mxCell id="172" value="Weaker" style="edgeLabel;html=1;align=center;verticalAlign=middle;resizable=0;points=[];" parent="170" vertex="1" connectable="0">
                    <mxGeometry x="-0.1657" y="-1" relative="1" as="geometry">
                        <mxPoint x="20" y="11" as="offset"/>
                    </mxGeometry>
                </mxCell>
                <mxCell id="173" value="" style="endArrow=none;html=1;rounded=0;exitX=0;exitY=0.5;exitDx=0;exitDy=0;entryX=1;entryY=0.5;entryDx=0;entryDy=0;" parent="1" source="79" target="78" edge="1">
                    <mxGeometry relative="1" as="geometry">
                        <mxPoint x="980.0899999999999" y="301.67" as="sourcePoint"/>
                        <mxPoint x="1140.09" y="301.67" as="targetPoint"/>
                    </mxGeometry>
                </mxCell>
                <mxCell id="174" value="N" style="resizable=0;html=1;align=right;verticalAlign=bottom;" parent="173" connectable="0" vertex="1">
                    <mxGeometry x="1" relative="1" as="geometry">
                        <mxPoint x="10" as="offset"/>
                    </mxGeometry>
                </mxCell>
                <mxCell id="175" value="" style="endArrow=none;html=1;rounded=0;entryX=0;entryY=0.5;entryDx=0;entryDy=0;exitX=1;exitY=0.75;exitDx=0;exitDy=0;" parent="1" source="UgMfafSLkVDqZi9sD24F-9" target="78" edge="1">
                    <mxGeometry relative="1" as="geometry">
                        <mxPoint x="1350" y="140" as="sourcePoint"/>
                        <mxPoint x="450" y="990" as="targetPoint"/>
                        <Array as="points">
                            <mxPoint x="690" y="340"/>
                            <mxPoint x="910" y="300"/>
                        </Array>
                    </mxGeometry>
                </mxCell>
                <mxCell id="176" value="N" style="resizable=0;html=1;align=right;verticalAlign=bottom;" parent="175" connectable="0" vertex="1">
                    <mxGeometry x="1" relative="1" as="geometry"/>
                </mxCell>
                <mxCell id="177" value="" style="endArrow=none;html=1;rounded=0;exitX=0.5;exitY=1;exitDx=0;exitDy=0;entryX=0;entryY=0.5;entryDx=0;entryDy=0;" parent="1" source="UgMfafSLkVDqZi9sD24F-9" target="46" edge="1">
                    <mxGeometry relative="1" as="geometry">
                        <mxPoint x="160" y="510" as="sourcePoint"/>
                        <mxPoint x="320" y="510" as="targetPoint"/>
                        <Array as="points">
                            <mxPoint x="190" y="340"/>
                            <mxPoint x="190" y="600"/>
                        </Array>
                    </mxGeometry>
                </mxCell>
                <mxCell id="178" value="1" style="resizable=0;html=1;align=right;verticalAlign=bottom;" parent="177" connectable="0" vertex="1">
                    <mxGeometry x="1" relative="1" as="geometry"/>
                </mxCell>
                <mxCell id="182" value="" style="endArrow=none;html=1;rounded=0;exitX=1;exitY=1;exitDx=0;exitDy=0;entryX=0;entryY=0.5;entryDx=0;entryDy=0;" parent="1" source="UgMfafSLkVDqZi9sD24F-9" target="122" edge="1">
                    <mxGeometry relative="1" as="geometry">
                        <mxPoint x="880" y="420" as="sourcePoint"/>
                        <mxPoint x="640" y="420" as="targetPoint"/>
                        <Array as="points">
                            <mxPoint x="630" y="380"/>
                            <mxPoint x="750" y="455"/>
                        </Array>
                    </mxGeometry>
                </mxCell>
                <mxCell id="183" value="1" style="resizable=0;html=1;align=right;verticalAlign=bottom;" parent="182" connectable="0" vertex="1">
                    <mxGeometry x="1" relative="1" as="geometry">
                        <mxPoint x="-5" as="offset"/>
                    </mxGeometry>
                </mxCell>
                <mxCell id="184" value="" style="endArrow=none;html=1;rounded=0;exitX=1;exitY=0.5;exitDx=0;exitDy=0;entryX=0;entryY=0.5;entryDx=0;entryDy=0;" parent="1" source="124" target="140" edge="1">
                    <mxGeometry relative="1" as="geometry">
                        <mxPoint x="1344.33" y="567.81" as="sourcePoint"/>
                        <mxPoint x="1385.0399999999995" y="455.00000000000006" as="targetPoint"/>
                        <Array as="points"/>
                    </mxGeometry>
                </mxCell>
                <mxCell id="185" value="1" style="resizable=0;html=1;align=right;verticalAlign=bottom;" parent="184" connectable="0" vertex="1">
                    <mxGeometry x="1" relative="1" as="geometry">
                        <mxPoint as="offset"/>
                    </mxGeometry>
                </mxCell>
                <mxCell id="186" value="" style="endArrow=none;html=1;rounded=0;exitX=0.75;exitY=1;exitDx=0;exitDy=0;entryX=0;entryY=0.5;entryDx=0;entryDy=0;" parent="1" source="UgMfafSLkVDqZi9sD24F-9" target="UgMfafSLkVDqZi9sD24F-24" edge="1">
                    <mxGeometry relative="1" as="geometry">
                        <mxPoint x="307.5" y="455.84000000000003" as="sourcePoint"/>
                        <mxPoint x="252.5" y="560.84" as="targetPoint"/>
                        <Array as="points"/>
                    </mxGeometry>
                </mxCell>
                <mxCell id="187" value="N" style="resizable=0;html=1;align=right;verticalAlign=bottom;" parent="186" connectable="0" vertex="1">
                    <mxGeometry x="1" relative="1" as="geometry">
                        <mxPoint x="-5" as="offset"/>
                    </mxGeometry>
                </mxCell>
                <mxCell id="188" value="To" style="edgeLabel;html=1;align=center;verticalAlign=middle;resizable=0;points=[];" parent="186" vertex="1" connectable="0">
                    <mxGeometry x="-0.2881" y="1" relative="1" as="geometry">
                        <mxPoint as="offset"/>
                    </mxGeometry>
                </mxCell>
                <mxCell id="189" value="" style="endArrow=none;html=1;rounded=0;exitX=0.75;exitY=1;exitDx=0;exitDy=0;entryX=1;entryY=0.5;entryDx=0;entryDy=0;" parent="1" source="UgMfafSLkVDqZi9sD24F-9" target="UgMfafSLkVDqZi9sD24F-24" edge="1">
                    <mxGeometry relative="1" as="geometry">
                        <mxPoint x="320" y="450" as="sourcePoint"/>
                        <mxPoint x="270" y="450" as="targetPoint"/>
                        <Array as="points"/>
                    </mxGeometry>
                </mxCell>
                <mxCell id="190" value="1" style="resizable=0;html=1;align=right;verticalAlign=bottom;" parent="189" connectable="0" vertex="1">
                    <mxGeometry x="1" relative="1" as="geometry">
                        <mxPoint x="5" y="-5" as="offset"/>
                    </mxGeometry>
                </mxCell>
                <mxCell id="191" value="From" style="edgeLabel;html=1;align=center;verticalAlign=middle;resizable=0;points=[];" parent="189" vertex="1" connectable="0">
                    <mxGeometry x="-0.3378" relative="1" as="geometry">
                        <mxPoint x="2" as="offset"/>
                    </mxGeometry>
                </mxCell>
                <mxCell id="192" value="" style="endArrow=none;html=1;rounded=0;exitX=1;exitY=0.5;exitDx=0;exitDy=0;entryX=0;entryY=0.5;entryDx=0;entryDy=0;" parent="1" source="UgMfafSLkVDqZi9sD24F-9" target="26" edge="1">
                    <mxGeometry relative="1" as="geometry">
                        <mxPoint x="600" y="90" as="sourcePoint"/>
                        <mxPoint x="360" y="90" as="targetPoint"/>
                    </mxGeometry>
                </mxCell>
                <mxCell id="193" value="N" style="resizable=0;html=1;align=right;verticalAlign=bottom;" parent="192" connectable="0" vertex="1">
                    <mxGeometry x="1" relative="1" as="geometry">
                        <mxPoint x="-1" as="offset"/>
                    </mxGeometry>
                </mxCell>
                <mxCell id="194" value="" style="endArrow=none;html=1;rounded=0;exitX=0;exitY=0.5;exitDx=0;exitDy=0;entryX=1;entryY=0.5;entryDx=0;entryDy=0;" parent="1" source="15" target="26" edge="1">
                    <mxGeometry relative="1" as="geometry">
                        <mxPoint x="640" y="270" as="sourcePoint"/>
                        <mxPoint x="590" y="270" as="targetPoint"/>
                        <Array as="points"/>
                    </mxGeometry>
                </mxCell>
                <mxCell id="195" value="1" style="resizable=0;html=1;align=right;verticalAlign=bottom;" parent="194" connectable="0" vertex="1">
                    <mxGeometry x="1" relative="1" as="geometry">
                        <mxPoint x="11" as="offset"/>
                    </mxGeometry>
                </mxCell>
                <mxCell id="196" value="" style="endArrow=none;html=1;rounded=0;exitX=0.25;exitY=1;exitDx=0;exitDy=0;entryX=0;entryY=0.5;entryDx=0;entryDy=0;" parent="1" source="UgMfafSLkVDqZi9sD24F-9" target="93" edge="1">
                    <mxGeometry relative="1" as="geometry">
                        <mxPoint x="815.04" y="411.68" as="sourcePoint"/>
                        <mxPoint x="945.04" y="411.68" as="targetPoint"/>
                        <Array as="points">
                            <mxPoint x="100" y="620"/>
                            <mxPoint x="100" y="900"/>
                        </Array>
                    </mxGeometry>
                </mxCell>
                <mxCell id="197" value="N" style="resizable=0;html=1;align=right;verticalAlign=bottom;" parent="196" connectable="0" vertex="1">
                    <mxGeometry x="1" relative="1" as="geometry">
                        <mxPoint x="-1" as="offset"/>
                    </mxGeometry>
                </mxCell>
                <mxCell id="198" value="" style="endArrow=none;html=1;rounded=0;exitX=0;exitY=0.5;exitDx=0;exitDy=0;" parent="1" source="92" target="93" edge="1">
                    <mxGeometry relative="1" as="geometry">
                        <mxPoint x="496.6" y="1010" as="sourcePoint"/>
                        <mxPoint x="626.6" y="1010" as="targetPoint"/>
                    </mxGeometry>
                </mxCell>
                <mxCell id="199" value="N" style="resizable=0;html=1;align=right;verticalAlign=bottom;" parent="198" connectable="0" vertex="1">
                    <mxGeometry x="1" relative="1" as="geometry">
                        <mxPoint x="11" as="offset"/>
                    </mxGeometry>
                </mxCell>
                <mxCell id="203" value="&lt;font style=&quot;font-size: 12px;&quot;&gt;sprite&lt;br&gt;&lt;/font&gt;" style="ellipse;whiteSpace=wrap;html=1;" vertex="1" parent="1">
                    <mxGeometry x="1745.2" y="330" width="82.5" height="55" as="geometry"/>
                </mxCell>
                <mxCell id="204" value="" style="endArrow=none;html=1;entryX=0.5;entryY=1;entryDx=0;entryDy=0;exitX=1;exitY=0;exitDx=0;exitDy=0;" edge="1" parent="1" target="203" source="142">
                    <mxGeometry width="50" height="50" relative="1" as="geometry">
                        <mxPoint x="1805.2" y="383" as="sourcePoint"/>
                        <mxPoint x="1965.2" y="509.1700000000001" as="targetPoint"/>
                    </mxGeometry>
                </mxCell>
                <mxCell id="210" value="" style="shape=link;html=1;rounded=0;entryX=1;entryY=0.5;entryDx=0;entryDy=0;exitX=0;exitY=0.5;exitDx=0;exitDy=0;" edge="1" parent="1" source="45" target="46">
                    <mxGeometry relative="1" as="geometry">
                        <mxPoint x="740" y="580" as="sourcePoint"/>
                        <mxPoint x="900" y="580" as="targetPoint"/>
                    </mxGeometry>
                </mxCell>
                <mxCell id="211" value="1" style="resizable=0;html=1;align=right;verticalAlign=bottom;" connectable="0" vertex="1" parent="210">
                    <mxGeometry x="1" relative="1" as="geometry">
                        <mxPoint x="10" as="offset"/>
                    </mxGeometry>
                </mxCell>
                <mxCell id="212" value="&lt;font style=&quot;font-size: 12px;&quot;&gt;capture_rate&lt;br&gt;&lt;/font&gt;" style="ellipse;whiteSpace=wrap;html=1;" vertex="1" parent="1">
                    <mxGeometry x="1045.04" y="531.67" width="80" height="53.33" as="geometry"/>
                </mxCell>
                <mxCell id="213" value="" style="endArrow=none;html=1;rounded=0;entryX=0;entryY=1;entryDx=0;entryDy=0;exitX=0.5;exitY=0;exitDx=0;exitDy=0;" edge="1" parent="1" source="212" target="124">
                    <mxGeometry relative="1" as="geometry">
                        <mxPoint x="1125.04" y="658.33" as="sourcePoint"/>
                        <mxPoint x="1285.04" y="658.33" as="targetPoint"/>
                    </mxGeometry>
                </mxCell>
                <mxCell id="214" value="&lt;font style=&quot;font-size: 18px;&quot;&gt;BaseGOStats&lt;/font&gt;" style="rounded=0;whiteSpace=wrap;html=1;" vertex="1" parent="1">
                    <mxGeometry x="1580.71" y="750.0000000000001" width="200" height="100" as="geometry"/>
                </mxCell>
                <mxCell id="215" value="Have" style="rhombus;whiteSpace=wrap;html=1;" vertex="1" parent="1">
                    <mxGeometry x="1350" y="765.0000000000001" width="110" height="70" as="geometry"/>
                </mxCell>
                <mxCell id="216" value="" style="shape=link;html=1;rounded=0;entryX=1;entryY=0.5;entryDx=0;entryDy=0;exitX=0;exitY=0.5;exitDx=0;exitDy=0;" edge="1" parent="1" source="214" target="215">
                    <mxGeometry relative="1" as="geometry">
                        <mxPoint x="1260.71" y="730.0000000000001" as="sourcePoint"/>
                        <mxPoint x="1210.71" y="730.0000000000001" as="targetPoint"/>
                    </mxGeometry>
                </mxCell>
                <mxCell id="217" value="1" style="resizable=0;html=1;align=right;verticalAlign=bottom;" connectable="0" vertex="1" parent="216">
                    <mxGeometry x="1" relative="1" as="geometry">
                        <mxPoint x="10" as="offset"/>
                    </mxGeometry>
                </mxCell>
                <mxCell id="218" value="" style="endArrow=none;html=1;rounded=0;exitX=0.5;exitY=1;exitDx=0;exitDy=0;entryX=0;entryY=0.5;entryDx=0;entryDy=0;" edge="1" parent="1" source="124" target="215">
                    <mxGeometry relative="1" as="geometry">
                        <mxPoint x="1225.04" y="669.9999999999999" as="sourcePoint"/>
                        <mxPoint x="1225.04" y="1010" as="targetPoint"/>
                        <Array as="points">
                            <mxPoint x="1185.04" y="750"/>
                            <mxPoint x="1185" y="800"/>
                        </Array>
                    </mxGeometry>
                </mxCell>
                <mxCell id="219" value="1" style="resizable=0;html=1;align=right;verticalAlign=bottom;" connectable="0" vertex="1" parent="218">
                    <mxGeometry x="1" relative="1" as="geometry"/>
                </mxCell>
                <mxCell id="220" value="&lt;font style=&quot;font-size: 12px;&quot;&gt;flee_rate&lt;br&gt;&lt;/font&gt;" style="ellipse;whiteSpace=wrap;html=1;" vertex="1" parent="1">
                    <mxGeometry x="1245.04" y="531.67" width="80" height="53.33" as="geometry"/>
                </mxCell>
                <mxCell id="221" value="" style="endArrow=none;html=1;rounded=0;entryX=1;entryY=1;entryDx=0;entryDy=0;exitX=0.5;exitY=0;exitDx=0;exitDy=0;" edge="1" parent="1" source="220" target="124">
                    <mxGeometry relative="1" as="geometry">
                        <mxPoint x="1314.33" y="668.33" as="sourcePoint"/>
                        <mxPoint x="1274.33" y="515" as="targetPoint"/>
                    </mxGeometry>
                </mxCell>
                <mxCell id="224" value="&lt;font style=&quot;font-size: 12px;&quot;&gt;&lt;u style=&quot;&quot;&gt;id_stats_go&lt;/u&gt;&lt;/font&gt;" style="ellipse;whiteSpace=wrap;html=1;" vertex="1" parent="1">
                    <mxGeometry x="1540.71" y="676.6700000000001" width="80" height="53.33" as="geometry"/>
                </mxCell>
                <mxCell id="225" value="" style="endArrow=none;html=1;rounded=0;entryX=0.5;entryY=1;entryDx=0;entryDy=0;exitX=0;exitY=0;exitDx=0;exitDy=0;" edge="1" parent="1" target="224" source="214">
                    <mxGeometry width="50" height="50" relative="1" as="geometry">
                        <mxPoint x="1595.67" y="705.0000000000001" as="sourcePoint"/>
                        <mxPoint x="2185.67" y="696.6700000000002" as="targetPoint"/>
                    </mxGeometry>
                </mxCell>
                <mxCell id="226" value="&lt;font style=&quot;font-size: 12px;&quot;&gt;stamina&lt;br&gt;&lt;/font&gt;" style="ellipse;whiteSpace=wrap;html=1;" vertex="1" parent="1">
                    <mxGeometry x="1590.71" y="623.34" width="80" height="53.33" as="geometry"/>
                </mxCell>
                <mxCell id="227" value="" style="endArrow=none;html=1;entryX=0.5;entryY=1;entryDx=0;entryDy=0;exitX=0.25;exitY=0;exitDx=0;exitDy=0;" edge="1" parent="1" target="226" source="214">
                    <mxGeometry width="50" height="50" relative="1" as="geometry">
                        <mxPoint x="1715.67" y="696.6700000000001" as="sourcePoint"/>
                        <mxPoint x="1750.71" y="877.5000000000001" as="targetPoint"/>
                    </mxGeometry>
                </mxCell>
                <mxCell id="228" value="&lt;font style=&quot;font-size: 12px;&quot;&gt;defense&lt;br&gt;&lt;/font&gt;" style="ellipse;whiteSpace=wrap;html=1;" vertex="1" parent="1">
                    <mxGeometry x="1640.71" y="676.67" width="80" height="53.33" as="geometry"/>
                </mxCell>
                <mxCell id="229" value="" style="endArrow=none;html=1;entryX=0.5;entryY=1;entryDx=0;entryDy=0;exitX=0.5;exitY=0;exitDx=0;exitDy=0;" edge="1" parent="1" target="228" source="214">
                    <mxGeometry width="50" height="50" relative="1" as="geometry">
                        <mxPoint x="1640.71" y="760" as="sourcePoint"/>
                        <mxPoint x="1760.71" y="887.5000000000001" as="targetPoint"/>
                    </mxGeometry>
                </mxCell>
                <mxCell id="230" value="&lt;font style=&quot;font-size: 12px;&quot;&gt;attack&lt;br&gt;&lt;/font&gt;" style="ellipse;whiteSpace=wrap;html=1;" vertex="1" parent="1">
                    <mxGeometry x="1690.71" y="623.34" width="80" height="53.33" as="geometry"/>
                </mxCell>
                <mxCell id="231" value="" style="endArrow=none;html=1;entryX=0.5;entryY=1;entryDx=0;entryDy=0;exitX=0.75;exitY=0;exitDx=0;exitDy=0;" edge="1" parent="1" target="230" source="214">
                    <mxGeometry width="50" height="50" relative="1" as="geometry">
                        <mxPoint x="1805.67" y="760" as="sourcePoint"/>
                        <mxPoint x="1925.67" y="887.5000000000001" as="targetPoint"/>
                    </mxGeometry>
                </mxCell>
                <mxCell id="238" value="Is of" style="rhombus;whiteSpace=wrap;html=1;" vertex="1" parent="1">
                    <mxGeometry x="510" y="966.66" width="110" height="70" as="geometry"/>
                </mxCell>
                <mxCell id="239" value="" style="endArrow=none;html=1;rounded=0;exitX=0.5;exitY=0;exitDx=0;exitDy=0;entryX=0;entryY=0.5;entryDx=0;entryDy=0;" edge="1" parent="1" source="67" target="238">
                    <mxGeometry relative="1" as="geometry">
                        <mxPoint x="410" y="1020" as="sourcePoint"/>
                        <mxPoint x="570" y="1020" as="targetPoint"/>
                        <Array as="points">
                            <mxPoint x="480" y="1000"/>
                        </Array>
                    </mxGeometry>
                </mxCell>
                <mxCell id="240" value="1" style="resizable=0;html=1;align=right;verticalAlign=bottom;" connectable="0" vertex="1" parent="239">
                    <mxGeometry x="1" relative="1" as="geometry"/>
                </mxCell>
                <mxCell id="241" value="" style="endArrow=none;html=1;rounded=0;entryX=1;entryY=0.5;entryDx=0;entryDy=0;" edge="1" parent="1" target="238">
                    <mxGeometry relative="1" as="geometry">
                        <mxPoint x="650" y="950" as="sourcePoint"/>
                        <mxPoint x="610" y="960" as="targetPoint"/>
                        <Array as="points">
                            <mxPoint x="650" y="1000"/>
                        </Array>
                    </mxGeometry>
                </mxCell>
                <mxCell id="242" value="N" style="resizable=0;html=1;align=right;verticalAlign=bottom;" connectable="0" vertex="1" parent="241">
                    <mxGeometry x="1" relative="1" as="geometry">
                        <mxPoint x="10" as="offset"/>
                    </mxGeometry>
                </mxCell>
                <mxCell id="243" value="&lt;font style=&quot;font-size: 12px;&quot;&gt;is_hidden&lt;br&gt;&lt;/font&gt;" style="ellipse;whiteSpace=wrap;html=1;" vertex="1" parent="1">
                    <mxGeometry x="1420" y="19.999999999999986" width="80" height="53.33" as="geometry"/>
                </mxCell>
                <mxCell id="244" value="" style="endArrow=none;html=1;entryX=0.5;entryY=1;entryDx=0;entryDy=0;exitX=0.5;exitY=0;exitDx=0;exitDy=0;" edge="1" parent="1" target="243" source="79">
                    <mxGeometry width="50" height="50" relative="1" as="geometry">
                        <mxPoint x="1490" y="110" as="sourcePoint"/>
                        <mxPoint x="1560" y="266.65999999999997" as="targetPoint"/>
                    </mxGeometry>
                </mxCell>
                <mxCell id="246" value="&lt;font style=&quot;font-size: 18px;&quot;&gt;GoMoves&lt;/font&gt;" style="rounded=0;whiteSpace=wrap;html=1;" vertex="1" parent="1">
                    <mxGeometry x="1590.71" y="1030.0000000000002" width="200" height="100" as="geometry"/>
                </mxCell>
                <mxCell id="247" value="Learn" style="rhombus;whiteSpace=wrap;html=1;" vertex="1" parent="1">
                    <mxGeometry x="1260.24" y="1045" width="110" height="70" as="geometry"/>
                </mxCell>
                <mxCell id="250" value="" style="endArrow=none;html=1;rounded=0;exitX=0;exitY=0.5;exitDx=0;exitDy=0;entryX=1;entryY=0.5;entryDx=0;entryDy=0;" edge="1" parent="1" source="246" target="247">
                    <mxGeometry relative="1" as="geometry">
                        <mxPoint x="1170" y="971.67" as="sourcePoint"/>
                        <mxPoint x="1330" y="971.67" as="targetPoint"/>
                    </mxGeometry>
                </mxCell>
                <mxCell id="251" value="N" style="resizable=0;html=1;align=right;verticalAlign=bottom;" connectable="0" vertex="1" parent="250">
                    <mxGeometry x="1" relative="1" as="geometry">
                        <mxPoint x="9" as="offset"/>
                    </mxGeometry>
                </mxCell>
                <mxCell id="254" value="" style="endArrow=none;html=1;rounded=0;exitX=0.25;exitY=1;exitDx=0;exitDy=0;entryX=0;entryY=0.5;entryDx=0;entryDy=0;" edge="1" parent="1" source="124" target="247">
                    <mxGeometry relative="1" as="geometry">
                        <mxPoint x="1600.7100000000005" y="1038.3300000000004" as="sourcePoint"/>
                        <mxPoint x="1380.2399999999998" y="1038.33" as="targetPoint"/>
                        <Array as="points">
                            <mxPoint x="1130" y="1080"/>
                        </Array>
                    </mxGeometry>
                </mxCell>
                <mxCell id="255" value="N" style="resizable=0;html=1;align=right;verticalAlign=bottom;" connectable="0" vertex="1" parent="254">
                    <mxGeometry x="1" relative="1" as="geometry">
                        <mxPoint as="offset"/>
                    </mxGeometry>
                </mxCell>
                <mxCell id="258" value="&lt;font style=&quot;font-size: 12px;&quot;&gt;&lt;u&gt;id_move&lt;/u&gt;&lt;br&gt;&lt;/font&gt;" style="ellipse;whiteSpace=wrap;html=1;" vertex="1" parent="1">
                    <mxGeometry x="1550" y="960" width="80" height="53.33" as="geometry"/>
                </mxCell>
                <mxCell id="259" value="" style="endArrow=none;html=1;entryX=0.5;entryY=1;entryDx=0;entryDy=0;exitX=0;exitY=0;exitDx=0;exitDy=0;" edge="1" parent="1" target="258" source="246">
                    <mxGeometry width="50" height="50" relative="1" as="geometry">
                        <mxPoint x="1540" y="980" as="sourcePoint"/>
                        <mxPoint x="1550" y="1180" as="targetPoint"/>
                    </mxGeometry>
                </mxCell>
                <mxCell id="261" value="&lt;font style=&quot;font-size: 12px;&quot;&gt;category&lt;br&gt;&lt;/font&gt;" style="ellipse;whiteSpace=wrap;html=1;" vertex="1" parent="1">
                    <mxGeometry x="1600" y="903.33" width="80" height="53.33" as="geometry"/>
                </mxCell>
                <mxCell id="262" value="" style="endArrow=none;html=1;entryX=0.5;entryY=1;entryDx=0;entryDy=0;exitX=0.25;exitY=0;exitDx=0;exitDy=0;" edge="1" parent="1" target="261" source="246">
                    <mxGeometry width="50" height="50" relative="1" as="geometry">
                        <mxPoint x="1660.24" y="1013.33" as="sourcePoint"/>
                        <mxPoint x="1680.24" y="1223.32" as="targetPoint"/>
                    </mxGeometry>
                </mxCell>
                <mxCell id="263" value="&lt;font style=&quot;font-size: 12px;&quot;&gt;name&lt;br&gt;&lt;/font&gt;" style="ellipse;whiteSpace=wrap;html=1;" vertex="1" parent="1">
                    <mxGeometry x="1650.71" y="960" width="80" height="53.33" as="geometry"/>
                </mxCell>
                <mxCell id="264" value="" style="endArrow=none;html=1;entryX=0.5;entryY=0;entryDx=0;entryDy=0;exitX=0.5;exitY=1;exitDx=0;exitDy=0;" edge="1" parent="1" target="246" source="263">
                    <mxGeometry width="50" height="50" relative="1" as="geometry">
                        <mxPoint x="1770.2400000000005" y="1015" as="sourcePoint"/>
                        <mxPoint x="1870.24" y="1189.99" as="targetPoint"/>
                    </mxGeometry>
                </mxCell>
                <mxCell id="265" value="&lt;font style=&quot;font-size: 12px;&quot;&gt;power&lt;br&gt;&lt;/font&gt;" style="ellipse;whiteSpace=wrap;html=1;" vertex="1" parent="1">
                    <mxGeometry x="1700.71" y="903.3300000000002" width="80" height="53.33" as="geometry"/>
                </mxCell>
                <mxCell id="267" value="" style="endArrow=none;html=1;rounded=0;exitX=0.75;exitY=0;exitDx=0;exitDy=0;entryX=0.5;entryY=1;entryDx=0;entryDy=0;" edge="1" parent="1" source="246" target="265">
                    <mxGeometry relative="1" as="geometry">
                        <mxPoint x="1550" y="830" as="sourcePoint"/>
                        <mxPoint x="1710" y="830" as="targetPoint"/>
                    </mxGeometry>
                </mxCell>
                <mxCell id="268" value="Is of" style="rhombus;whiteSpace=wrap;html=1;" vertex="1" parent="1">
                    <mxGeometry x="900" y="1078.33" width="110" height="70" as="geometry"/>
                </mxCell>
                <mxCell id="269" value="" style="endArrow=none;html=1;rounded=0;entryX=0;entryY=0.5;entryDx=0;entryDy=0;exitX=1;exitY=0;exitDx=0;exitDy=0;" edge="1" parent="1" source="67" target="268">
                    <mxGeometry relative="1" as="geometry">
                        <mxPoint x="960" y="1000" as="sourcePoint"/>
                        <mxPoint x="1120" y="1000" as="targetPoint"/>
                        <Array as="points">
                            <mxPoint x="680" y="1030"/>
                            <mxPoint x="800" y="1050"/>
                            <mxPoint x="790" y="1115"/>
                        </Array>
                    </mxGeometry>
                </mxCell>
                <mxCell id="270" value="1" style="resizable=0;html=1;align=right;verticalAlign=bottom;" connectable="0" vertex="1" parent="269">
                    <mxGeometry x="1" relative="1" as="geometry"/>
                </mxCell>
                <mxCell id="271" value="" style="endArrow=none;html=1;rounded=0;entryX=1;entryY=0.5;entryDx=0;entryDy=0;exitX=0;exitY=1;exitDx=0;exitDy=0;" edge="1" parent="1" source="246" target="268">
                    <mxGeometry relative="1" as="geometry">
                        <mxPoint x="960" y="1000" as="sourcePoint"/>
                        <mxPoint x="1120" y="1000" as="targetPoint"/>
                        <Array as="points">
                            <mxPoint x="1260" y="1150"/>
                        </Array>
                    </mxGeometry>
                </mxCell>
                <mxCell id="272" value="N" style="resizable=0;html=1;align=right;verticalAlign=bottom;" connectable="0" vertex="1" parent="271">
                    <mxGeometry x="1" relative="1" as="geometry"/>
                </mxCell>
                <mxCell id="273" value="&lt;font style=&quot;font-size: 12px;&quot;&gt;multiplier&lt;br&gt;&lt;/font&gt;" style="ellipse;whiteSpace=wrap;html=1;" vertex="1" parent="1">
                    <mxGeometry x="770.9300000000001" y="1140" width="80" height="53.33" as="geometry"/>
                </mxCell>
                <mxCell id="274" value="" style="endArrow=none;html=1;fontSize=11;exitX=0;exitY=0.5;exitDx=0;exitDy=0;entryX=1;entryY=0.5;entryDx=0;entryDy=0;" edge="1" parent="1" source="273" target="115">
                    <mxGeometry width="50" height="50" relative="1" as="geometry">
                        <mxPoint x="400" y="1073.33" as="sourcePoint"/>
                        <mxPoint x="620" y="1170" as="targetPoint"/>
                    </mxGeometry>
                </mxCell>
            </root>
        </mxGraphModel>
    </diagram>
</mxfile>